<svg xmlns="http://www.w3.org/2000/svg" xmlns:xlink="http://www.w3.org/1999/xlink" xml:space="preserve" width="1000" height="286.6" viewBox="0 0 1000 286.6">
  <defs>
    <linearGradient id="grad1" x1="0%" y1="100%" x2="100%" y2="0%">
      <stop offset="0%" style="stop-color:#00B894;stop-opacity:1" />
      <stop offset="100%" style="stop-color:#00CEC9;stop-opacity:1" />
    </linearGradient>
    <linearGradient id="grad2" x1="0%" y1="0%" x2="100%" y2="100%">
      <stop offset="0%" style="stop-color:#00B894;stop-opacity:1" />
      <stop offset="100%" style="stop-color:#00CEC9;stop-opacity:1" />
    </linearGradient>
  </defs>
  
  <!-- Background -->
  <rect width="1000" height="286.6" fill="#e5e5e5" />
  
  <!-- Icon: two curved shapes representing remote connection -->
  <path d="M533.7 74.2l-7.7 7.6c-1.4 1.3-2 3.2-1.3 4.9a28 28 0 01-5.2 32 28.1 28.1 0 01-32 5.2c-1.7-.7-3.5 0-4.7 1.2l-7.9 7.8a4.2 4.2 0 00.8 6.5 47 47 0 0064.6-64.3 4.2 4.2 0 00-3-2 4.2 4.2 0 00-3.6 1z" fill="url(#grad1)" />
  <path d="M467 65.8a46.9 46.9 0 00-7.3 57.5 4.2 4.2 0 006.6.9l7.7-7.6c1.4-1.3 2-3.2 1.3-5a28 28 0 015.2-32 28.1 28.1 0 0132-5.2c1.6.7 3.5.1 4.7-1l7.9-8a4.2 4.2 0 00-.8-6.5 47 47 0 00-57.4 7.1z" fill="url(#grad1)" />
  
  <!-- ShopRemote2 text -->
  <text x="500" y="195" text-anchor="middle" font-family="'Nunito', 'Arial', sans-serif" font-weight="700" font-size="52" fill="#00B894" letter-spacing="2">SHOPREMOTE2</text>
  
  <!-- Subtitle -->
  <text x="500" y="235" text-anchor="middle" font-family="'Nunito', 'Arial', sans-serif" font-weight="600" font-size="22" fill="#00B894">Your remote desktop</text>
</svg>